<svg xmlns="http://www.w3.org/2000/svg" width="18" height="18" viewBox="0 0 18 18"><defs><style>.a{fill:#fd3c3c;}.b{fill:#fff;}.c{fill:none;}</style></defs><path class="a" d="M9.5,2A7.5,7.5,0,1,0,17,9.5,7.493,7.493,0,0,0,9.5,2Zm3.75,10.192L12.192,13.25,9.5,10.557,6.808,13.25,5.75,12.192,8.442,9.5,5.75,6.808,6.808,5.75,9.5,8.442,12.192,5.75,13.25,6.808,10.557,9.5Z" transform="translate(-0.5 -0.5)"/><path class="b" d="M13.25,12.192,12.192,13.25,9.5,10.557,6.808,13.25,5.75,12.192,8.442,9.5,5.75,6.808,6.808,5.75,9.5,8.442,12.192,5.75,13.25,6.808,10.557,9.5Z" transform="translate(-0.5 -0.5)"/><path class="c" d="M0,0H18V18H0Z"/></svg>