<svg xmlns="http://www.w3.org/2000/svg" width="30" height="30" viewBox="0 0 30 30"><defs><style>.a{fill:none;}.b{fill:#ffbc00;}</style></defs><rect class="a" width="30" height="30"/><g transform="translate(2 2)"><path class="b" d="M14.987,2A13,13,0,1,0,28,15,12.994,12.994,0,0,0,14.987,2ZM10.45,9.8A1.95,1.95,0,1,1,8.5,11.75,1.947,1.947,0,0,1,10.45,9.8ZM15,22.8a7.1,7.1,0,0,1-6.5-5.2h13A7.1,7.1,0,0,1,15,22.8Zm4.55-9.1a1.95,1.95,0,1,1,1.95-1.95A1.947,1.947,0,0,1,19.55,13.7Z" transform="translate(-2 -2)"/></g></svg>